<svg width="86" height="86" viewBox="0 0 86 86" fill="none" xmlns="http://www.w3.org/2000/svg">
<g clip-path="url(#clip0_575_585)">
<rect width="86" height="86" fill="url(#paint0_radial_575_585)"/>
<path d="M65.9721 55.8735C66.7654 55.8735 67.2588 54.9979 66.8573 54.3025L43.8852 14.5152C43.4886 13.8283 42.5114 13.8283 42.1148 14.5152L19.1427 54.3025C18.7412 54.9979 19.2346 55.8735 20.0279 55.8735H32.311C32.6714 55.8735 33.0054 56.0656 33.1909 56.3797L42.1201 71.4939C42.5188 72.1687 43.4812 72.1687 43.8799 71.4939L52.8091 56.3797C52.9946 56.0656 53.3286 55.8735 53.689 55.8735H65.9721Z" fill="white" fill-opacity="0.6"/>
<path fill-rule="evenodd" clip-rule="evenodd" d="M64.1796 49.3922C64.5925 49.4494 64.9612 49.6954 65.1748 50.0655L67.8133 54.6375C68.0604 55.0656 68.0623 55.5948 67.8185 56.0248C67.5747 56.4548 67.1223 56.72 66.6325 56.72L53.1609 56.72L44.1426 72.315C43.8973 72.7393 43.448 73 42.9623 73C42.4767 73 42.0274 72.7392 41.7821 72.3149L32.7655 56.7199L19.3674 56.7186C18.8776 56.7185 18.4252 56.4533 18.1814 56.0233C17.9377 55.5933 17.9397 55.0642 18.1867 54.6361L41.8187 13.686C42.0639 13.2612 42.5135 13 42.9996 13C43.4857 13 43.9352 13.2612 44.1804 13.686L46.5798 17.8437C46.7989 18.2234 46.898 18.652 46.877 19.0759C47.198 19.1773 47.4761 19.3968 47.6506 19.6992L50.0466 23.8511C50.2658 24.2308 50.3648 24.6594 50.3438 25.0833C50.6649 25.1847 50.9429 25.4042 51.1174 25.7066L53.5135 29.8585C53.7326 30.2382 53.8316 30.6668 53.8106 31.0907C54.1317 31.1921 54.4098 31.4116 54.5843 31.714L56.9803 35.8659M56.9803 35.8659C57.1994 36.2456 57.2985 36.6742 57.2774 37.0981C57.5985 37.1995 57.8766 37.419 58.0511 37.7214L60.4471 41.8733C60.6663 42.253 60.7653 42.6816 60.7443 43.1055C61.0654 43.2069 61.3434 43.4264 61.5179 43.7288L63.9139 47.8806C64.1814 48.3442 64.27 48.8805 64.1796 49.3922M62.399 50.7637C62.2033 50.7637 62.0809 50.5521 62.1788 50.3828L62.7328 49.4247C62.7414 49.4098 62.7495 49.3947 62.7571 49.3794C62.8836 49.1265 62.8756 48.8257 62.7331 48.5789L60.3371 44.427L56.6734 50.7637H55.4589C55.2631 50.7637 55.1408 50.5521 55.2387 50.3828L59.2659 43.4173C59.4172 43.1556 59.4174 42.8333 59.2663 42.5715L56.8703 38.4196L42.961 62.477L42.3292 61.3844C42.2574 61.2602 42.2282 61.1189 42.2415 60.9807C42.2507 60.8859 42.2799 60.7925 42.3292 60.7072L55.7991 37.4099C55.9504 37.1482 55.9505 36.8259 55.7994 36.5641L53.4034 32.4122L39.4909 56.4752L38.8592 55.3826C38.7874 55.2584 38.7581 55.1171 38.7715 54.9789C38.7806 54.8841 38.8099 54.7907 38.8592 54.7055L52.3323 31.4025C52.4836 31.1408 52.4837 30.8185 52.3326 30.5567L49.9366 26.4048L35.853 50.7637H34.6385C34.4427 50.7637 34.3204 50.5521 34.4183 50.3828L48.8654 25.3951C49.0167 25.1334 49.0169 24.8111 48.8658 24.5493L46.4698 20.3974L28.9129 50.7637H27.6984C27.5026 50.7637 27.3803 50.5521 27.4782 50.3828L45.3986 19.3877C45.5499 19.1261 45.55 18.8037 45.399 18.5419L42.9996 14.3843L19.3675 55.3343L33.5498 55.3357L42.9624 71.6158L52.3768 55.3357L66.6325 55.3357L63.994 50.7637H62.399Z" fill="white"/>
</g>
<defs>
<radialGradient id="paint0_radial_575_585" cx="0" cy="0" r="1" gradientUnits="userSpaceOnUse" gradientTransform="rotate(45) scale(121.622)">
<stop stop-color="#2E51E1"/>
<stop offset="1" stop-color="#322EE1"/>
</radialGradient>
<clipPath id="clip0_575_585">
<rect width="86" height="86" fill="white"/>
</clipPath>
</defs>
</svg>
